<svg xmlns="http://www.w3.org/2000/svg" viewBox="0 0 344.000000 344.000000">
    <g transform="translate(0.000000,344.000000) scale(0.100000,-0.100000)" fill="currentColor">
      <path d="M392 2855 c-62 -19 -106 -57 -136 -117 l-26 -52 0 -902 c0 -764 2 -908 15 -943 l14 -41 -129 0 -130 0 0 -71 c0 -40 6 -90 12 -113 16 -54 93 -131 144 -145 55 -15 3073 -15 3128 0 51 14 128 91 144 145 6 23 12 73 12 113 l0 71 -130 0 -129 0 14 41 c13 35 15 179 15 943 l0 902 -26 52 c-30 61 -74 98 -140 118 -68 20 -2586 20 -2652 -1z m2588 -1075 l0 -860 -456 -2 -456 -3 -12 -34 c-6 -19 -24 -44 -39 -55 -27 -20 -41 -21 -242 -21 l-214 0 -30 29 c-16 16 -33 42 -36 57 l-7 29 -514 0 -514 0 0 860 0 860 1260 0 1260 0 0 -860z"/>
    </g>
  </svg>